<svg width="52" height="47" viewBox="0 0 52 47" fill="none" xmlns="http://www.w3.org/2000/svg">
<path opacity="0.3" d="M32.5602 12.0346L32.551 30.7356C32.551 31.6066 31.8282 32.3201 30.948 32.3201H1.60295C0.722717 32.3201 0 31.6066 0 30.7356V1.58442C0 0.713452 0.722717 0 1.60295 0H21.1958C22.076 0 22.7987 0.713452 22.7987 1.58442V6.27763C22.7987 8.0381 24.1608 9.4372 25.9583 9.4372H30.9573C31.8375 9.4372 32.5602 10.1507 32.5602 11.0216V12.0346Z" fill="#2C2C2C"/>
<path fill-rule="evenodd" clip-rule="evenodd" d="M28.8335 21.1669C28.2147 21.1669 27.6212 21.4127 27.1836 21.8503C26.746 22.2879 26.5002 22.8814 26.5002 23.5002C26.5002 24.1191 26.746 24.7126 27.1836 25.1501C27.6212 25.5877 28.2147 25.8336 28.8335 25.8336C29.4523 25.8336 30.0458 25.5877 30.4834 25.1501C30.921 24.7126 31.1668 24.1191 31.1668 23.5002C31.1668 22.8814 30.921 22.2879 30.4834 21.8503C30.0458 21.4127 29.4523 21.1669 28.8335 21.1669ZM26.4765 21.1432C27.1016 20.5181 27.9494 20.1669 28.8335 20.1669C29.7175 20.1669 30.5654 20.5181 31.1905 21.1432C31.8156 21.7683 32.1668 22.6162 32.1668 23.5002C32.1668 24.3843 31.8156 25.2321 31.1905 25.8572C30.5654 26.4824 29.7175 26.8336 28.8335 26.8336C27.9494 26.8336 27.1016 26.4824 26.4765 25.8572C25.8513 25.2321 25.5002 24.3843 25.5002 23.5002C25.5002 22.6162 25.8513 21.7683 26.4765 21.1432Z" fill="#2C2C2C"/>
<path fill-rule="evenodd" clip-rule="evenodd" d="M23.1673 26.8331C22.5485 26.8331 21.955 27.0789 21.5174 27.5165C21.0798 27.9541 20.834 28.5476 20.834 29.1664C20.834 29.7852 21.0798 30.3787 21.5174 30.8163C21.955 31.2539 22.5485 31.4997 23.1673 31.4997C23.7861 31.4997 24.3796 31.2539 24.8172 30.8163C25.2548 30.3787 25.5006 29.7852 25.5006 29.1664V26.8331H23.1673ZM19.834 29.1664C19.834 28.2823 20.1852 27.4345 20.8103 26.8094C21.4354 26.1843 22.2833 25.8331 23.1673 25.8331H26.5006V29.1664C26.5006 30.0505 26.1495 30.8983 25.5243 31.5234C24.8992 32.1485 24.0514 32.4997 23.1673 32.4997C22.2833 32.4997 21.4354 32.1485 20.8103 31.5234C20.3043 31.0174 19.9777 30.3654 19.8717 29.6664H19.834V29.1664Z" fill="#2C2C2C"/>
<path fill-rule="evenodd" clip-rule="evenodd" d="M25.5002 14.5H28.8335C29.7175 14.5 30.5654 14.8512 31.1905 15.4763C31.8156 16.1014 32.1668 16.9493 32.1668 17.8333C32.1668 18.7174 31.8156 19.5652 31.1905 20.1903C30.5654 20.8155 29.7175 21.1669 28.8335 21.1669L25.5002 21.1667V14.5ZM26.5002 15.5V20.1667L28.8335 20.1669C29.4523 20.1669 30.0458 19.9208 30.4834 19.4832C30.921 19.0457 31.1668 18.4522 31.1668 17.8333C31.1668 17.2145 30.921 16.621 30.4834 16.1834C30.0458 15.7458 29.4523 15.5 28.8335 15.5H26.5002Z" fill="#2C2C2C"/>
<path fill-rule="evenodd" clip-rule="evenodd" d="M20.8103 15.4763C21.4354 14.8512 22.2833 14.5 23.1673 14.5H26.5006V21.1667H23.1673C22.2833 21.1667 21.4354 20.8155 20.8103 20.1903C20.3043 19.6843 19.9777 19.0323 19.8717 18.3333H19.834V17.8333C19.834 16.9493 20.1852 16.1014 20.8103 15.4763ZM20.834 17.8333C20.834 18.4522 21.0798 19.0457 21.5174 19.4832C21.955 19.9208 22.5485 20.1667 23.1673 20.1667H25.5006V15.5H23.1673C22.5485 15.5 21.955 15.7458 21.5174 16.1834C21.0798 16.621 20.834 17.2145 20.834 17.8333Z" fill="#2C2C2C"/>
<path fill-rule="evenodd" clip-rule="evenodd" d="M20.8103 21.1432C21.4354 20.5181 22.2833 20.1667 23.1673 20.1667H26.5002L26.5006 26.8336L23.1673 26.8331C22.2833 26.8331 21.4354 26.4824 20.8103 25.8572C20.3043 25.3512 19.9777 24.6992 19.8717 24.0002H19.834V23.5002C19.834 22.6162 20.1852 21.7683 20.8103 21.1432ZM20.834 23.5002C20.834 24.1191 21.0798 24.7126 21.5174 25.1501C21.955 25.5877 22.5485 25.8331 23.1673 25.8331L25.5006 25.8336L25.5002 21.1667H23.1673C22.5485 21.1667 21.955 21.4127 21.5174 21.8503C21.0798 22.2879 20.834 22.8814 20.834 23.5002Z" fill="#2C2C2C"/>
<path fill-rule="evenodd" clip-rule="evenodd" d="M32.772 4.68792L40.1893 12.0404C40.4672 12.3276 40.6247 12.7075 40.634 13.0874L40.6154 29.3428H38.8125L38.8183 17.0531C38.8183 16.1822 38.0955 15.4687 37.2153 15.4687H32.2163C30.4188 15.4687 29.0568 14.0696 29.0568 12.3092V7.61595C29.0568 6.74498 28.334 6.03153 27.4538 6.03153H7.86098C6.98075 6.03153 6.25803 6.74498 6.25803 7.61595V36.7672C6.25803 37.6381 6.98075 38.3516 7.86098 38.3516H29.4248V40.2231H7.38812C5.76664 40.2231 4.45093 38.9074 4.45093 37.2859V7.18964C4.45093 5.56816 5.75738 4.25244 7.38812 4.25244H31.7249C32.1141 4.25244 32.494 4.40996 32.772 4.68792ZM38.3829 13.0688L31.5215 6.21669C31.2435 5.92946 30.7524 6.12404 30.7524 6.53172V12.0218C30.7524 13.0225 31.5678 13.8378 32.5685 13.8378H38.0678C38.4662 13.8378 38.6701 13.356 38.3829 13.0688Z" fill="#2C2C2C"/>
<path fill-rule="evenodd" clip-rule="evenodd" d="M43.7933 31.7929C44.1838 31.4024 44.8169 31.4024 45.2075 31.7929L51.7075 38.2929C52.098 38.6834 52.098 39.3166 51.7075 39.7071L45.2075 46.2071C44.8169 46.5976 44.1838 46.5976 43.7933 46.2071C43.4027 45.8166 43.4027 45.1834 43.7933 44.7929L48.5862 40H34.5004C33.9481 40 33.5004 39.5523 33.5004 39C33.5004 38.4477 33.9481 38 34.5004 38H48.5862L43.7933 33.2071C43.4027 32.8166 43.4027 32.1834 43.7933 31.7929Z" fill="#2C2C2C"/>
</svg>
