<svg width="76" height="88" viewBox="0 0 76 88" fill="none" xmlns="http://www.w3.org/2000/svg">
<path opacity="0.3" d="M49 18.8522L48.9861 57.4289C48.9861 58.757 47.8984 59.845 46.5738 59.845H2.41228C1.08762 59.845 0 58.757 0 57.4289V2.91616C0 1.58798 1.08762 0.5 2.41228 0.5H31.8976C33.2223 0.5 34.3099 1.58798 34.3099 2.91616V10.0731C34.3099 12.7577 36.3596 14.8913 39.0647 14.8913H46.5877C47.9124 14.8913 49 15.9793 49 17.3074V18.8522Z" fill="white"/>
<path opacity="0.69" d="M75 38.4236L74.9815 83.2948C74.9815 85.0567 73.5387 86.4999 71.7815 86.4999H13.2C11.4428 86.4999 10 85.0567 10 83.2948V17.284C10 15.5221 11.4428 14.0789 13.2 14.0789H52.3131C54.0703 14.0789 55.5131 15.5221 55.5131 17.284V26.7779C55.5131 30.3391 58.2322 33.1693 61.8206 33.1693H71.8C73.5572 33.1693 75 34.6126 75 36.3745V38.4236Z" stroke="white" stroke-width="2"/>
<path fill-rule="evenodd" clip-rule="evenodd" d="M26.3571 18.3135C24.6887 18.3135 23.1985 17.2573 22.6524 15.6854C22.3106 14.6997 22.3741 13.6402 22.8323 12.7023C23.2897 11.7643 24.0873 11.0607 25.0753 10.7194C27.0823 10.0304 29.3733 11.1515 30.0627 13.1335C30.7675 15.1699 29.6793 17.3967 27.6365 18.0987C27.2239 18.2414 26.7934 18.3135 26.3571 18.3135ZM26.3571 13.4513C26.2513 13.4513 26.1455 13.4691 26.0438 13.5048C25.8005 13.5883 25.606 13.7602 25.4928 13.9904C25.3821 14.2206 25.3659 14.48 25.4497 14.7208C25.619 15.2063 26.1708 15.4868 26.6705 15.3142C27.1718 15.1415 27.4388 14.5951 27.2654 14.0958C27.1311 13.7107 26.7673 13.4513 26.3571 13.4513Z" fill="#ECFFFE"/>
<path fill-rule="evenodd" clip-rule="evenodd" d="M28.7524 25.7966L25.772 17.207L28.5684 16.244L31.5488 24.8335L28.7524 25.7966Z" fill="#ECFFFE"/>
<path fill-rule="evenodd" clip-rule="evenodd" d="M24.1548 68.0408L18.7475 59.2567L21.2705 57.7156L26.6778 66.4998L24.1548 68.0408Z" fill="#ECFFFE"/>
<path fill-rule="evenodd" clip-rule="evenodd" d="M63.7054 43.0803L58.2981 34.2962L60.8202 32.7551L66.2276 41.5393L63.7054 43.0803Z" fill="#ECFFFE"/>
<path fill-rule="evenodd" clip-rule="evenodd" d="M49.899 69.2827C47.6942 69.2827 45.6921 68.1673 44.5405 66.2971L29.9829 42.649C28.1729 39.7088 29.1015 35.8502 32.0534 34.0473L32.7989 33.5925C33.7853 32.9894 34.919 32.67 36.0747 32.67C38.2794 32.67 40.2816 33.7871 41.4332 35.6564L55.9891 59.3037C56.8681 60.728 57.1351 62.4076 56.7436 64.0322C56.3521 65.6567 55.3494 67.0324 53.9195 67.9062L53.178 68.3594C52.1884 68.9633 51.0547 69.2827 49.899 69.2827ZM36.0747 37.0905C35.7386 37.0905 35.4073 37.1845 35.1176 37.362L34.3721 37.8168C33.5078 38.3445 33.2351 39.4762 33.7666 40.3387L48.3225 63.986C48.8345 64.8193 50.0056 65.1111 50.8569 64.5915L51.5975 64.1384C52.0199 63.8814 52.3129 63.4777 52.4285 63.001C52.5424 62.5252 52.4643 62.0331 52.2071 61.6156L37.6495 37.9668C37.3118 37.418 36.7233 37.0905 36.0747 37.0905Z" fill="#ECFFFE"/>
<path fill-rule="evenodd" clip-rule="evenodd" d="M47.2808 50.1377L44.9613 46.3699L54.818 40.35L57.1383 44.1179L47.2808 50.1377Z" fill="#ECFFFE"/>
<path fill-rule="evenodd" clip-rule="evenodd" d="M29.9732 60.7093L27.6528 56.9407L37.5095 50.92L39.8299 54.6887L29.9732 60.7093Z" fill="#ECFFFE"/>
<path fill-rule="evenodd" clip-rule="evenodd" d="M58.5455 50.1515C57.8 50.1515 57.0699 49.777 56.6524 49.0969L50.1952 38.608C49.8876 38.1078 49.7907 37.5071 49.9275 36.9372C50.065 36.3666 50.4247 35.8745 50.9261 35.5681L65.1646 26.8731C65.6676 26.5651 66.2715 26.4702 66.842 26.608C67.4142 26.745 67.909 27.1025 68.2158 27.6019L74.6714 38.0908C75.3135 39.1317 74.9855 40.4919 73.9405 41.1307L59.7036 49.8257C59.3414 50.047 58.941 50.1515 58.5455 50.1515ZM55.137 38.1816L59.2747 44.9018L69.7296 38.5172L65.5919 31.797L55.137 38.1816Z" fill="#ECFFFE"/>
<path fill-rule="evenodd" clip-rule="evenodd" d="M18.6767 74.5C18.5034 74.5 18.3308 74.4797 18.1599 74.4384C17.5878 74.3022 17.0921 73.9447 16.7861 73.4454L10.3281 62.9556C10.0204 62.4555 9.9236 61.8548 10.0611 61.2849C10.1987 60.7142 10.5584 60.2221 11.0598 59.9157L25.2967 51.2208C26.3409 50.5836 27.7073 50.9079 28.3479 51.9495L34.8051 62.4384C35.1127 62.9386 35.2096 63.5393 35.0728 64.1092C34.9353 64.6799 34.5756 65.1719 34.0742 65.4784L19.8373 74.1741C19.4849 74.3889 19.0828 74.5 18.6767 74.5ZM15.2707 62.5284L19.4092 69.2503L29.8633 62.8657L25.724 56.1446L15.2707 62.5284Z" fill="#ECFFFE"/>
<path fill-rule="evenodd" clip-rule="evenodd" d="M29.9382 36.5125C24.3819 36.5125 19.5891 32.7511 18.2812 27.3668C17.9939 26.1808 18.7247 24.9859 19.917 24.699L38.9314 20.118C39.5002 19.9794 40.1058 20.0742 40.6087 20.3807C41.1109 20.6863 41.4706 21.1775 41.6098 21.7474C43.1651 28.1531 39.1983 34.6253 32.7671 36.1744C31.8377 36.3982 30.8863 36.5125 29.9382 36.5125ZM23.4362 28.3996C24.766 30.6467 27.206 32.092 29.9382 32.092C30.5347 32.092 31.1362 32.0199 31.7238 31.878C35.0264 31.082 37.2971 28.2269 37.4949 25.0119L23.4362 28.3996Z" fill="#ECFFFE"/>
</svg>
