<svg width="76" height="88" viewBox="0 0 76 88" fill="none" xmlns="http://www.w3.org/2000/svg">
<path opacity="0.3" d="M49 18.8522L48.9861 57.4289C48.9861 58.757 47.8984 59.845 46.5738 59.845H2.41228C1.08762 59.845 0 58.757 0 57.4289V2.91616C0 1.58798 1.08762 0.5 2.41228 0.5H31.8976C33.2223 0.5 34.3099 1.58798 34.3099 2.91616V10.0731C34.3099 12.7577 36.3596 14.8913 39.0647 14.8913H46.5877C47.9124 14.8913 49 15.9793 49 17.3074V18.8522Z" fill="white"/>
<path opacity="0.69" d="M75 38.4236L74.9815 83.2948C74.9815 85.0567 73.5387 86.4999 71.7815 86.4999H13.2C11.4428 86.4999 10 85.0567 10 83.2948V17.284C10 15.5221 11.4428 14.0789 13.2 14.0789H52.3131C54.0703 14.0789 55.5131 15.5221 55.5131 17.284V26.7779C55.5131 30.3391 58.2322 33.1693 61.8206 33.1693H71.8C73.5572 33.1693 75 34.6126 75 36.3745V38.4236Z" stroke="white" stroke-width="2"/>
<path fill-rule="evenodd" clip-rule="evenodd" d="M18.8694 29.5976C14.7713 29.5976 11.437 26.2633 11.437 22.1663C11.437 18.0672 14.7713 14.7329 18.8694 14.7329C22.9674 14.7329 26.3017 18.0672 26.3017 22.1663C26.3017 26.2633 22.9674 29.5976 18.8694 29.5976ZM18.8694 18.4247C16.8077 18.4247 15.1288 20.1036 15.1288 22.1663C15.1288 24.228 16.8077 25.9058 18.8694 25.9058C20.9321 25.9058 22.6099 24.228 22.6099 22.1663C22.6099 20.1036 20.9321 18.4247 18.8694 18.4247Z" fill="#ECFFFE"/>
<path fill-rule="evenodd" clip-rule="evenodd" d="M53.6383 47.2746C50.8616 47.2746 48.6028 45.0148 48.6028 42.2391C48.6028 39.4624 50.8616 37.2047 53.6383 37.2047C56.414 37.2047 58.6727 39.4624 58.6727 42.2391C58.6727 45.0148 56.414 47.2746 53.6383 47.2746ZM53.6383 40.8965C52.8969 40.8965 52.2946 41.4987 52.2946 42.2391C52.2946 42.9795 52.8969 43.5818 53.6383 43.5818C54.3787 43.5818 54.9799 42.9795 54.9799 42.2391C54.9799 41.4987 54.3787 40.8965 53.6383 40.8965Z" fill="#ECFFFE"/>
<path fill-rule="evenodd" clip-rule="evenodd" d="M37.6493 59.9729C27.7449 59.9729 19.687 51.915 19.687 42.0106C19.687 32.1062 27.7449 24.0493 37.6493 24.0493C46.0942 24.0493 53.297 29.7926 55.1648 38.0172L51.5644 38.8358C50.0816 32.3033 44.3595 27.7411 37.6493 27.7411C29.7813 27.7411 23.3798 34.1426 23.3798 42.0106C23.3798 49.8797 29.7813 56.2812 37.6493 56.2812C44.452 56.2812 50.3395 51.4447 51.6497 44.7833L55.2734 45.4952C53.623 53.8843 46.212 59.9729 37.6493 59.9729Z" fill="#ECFFFE"/>
<path fill-rule="evenodd" clip-rule="evenodd" d="M42.5771 42.8099C42.5771 45.5318 40.3712 47.7377 37.6493 47.7377C34.9274 47.7377 32.7205 45.5318 32.7205 42.8099C32.7205 40.088 34.9274 37.8821 37.6493 37.8821C40.3712 37.8821 42.5771 40.088 42.5771 42.8099Z" fill="#ECFFFE"/>
<path fill-rule="evenodd" clip-rule="evenodd" d="M37.6493 74.4436C20.2059 74.4436 6.01562 60.2522 6.01562 42.8099C6.01562 35.7483 8.29266 29.0675 12.6009 23.4897L16.9834 26.8747C13.4317 31.4735 11.5538 36.9843 11.5538 42.8099C11.5538 57.1983 23.2599 68.9054 37.6493 68.9054C52.0377 68.9054 63.7438 57.1983 63.7438 42.8099C63.7438 28.4205 52.0377 16.7154 37.6493 16.7154C32.8728 16.7154 28.203 18.0154 24.1435 20.4763L21.2713 15.7404C26.1971 12.7555 31.8602 11.1772 37.6493 11.1772C55.0916 11.1772 69.282 25.3676 69.282 42.8099C69.282 60.2522 55.0916 74.4436 37.6493 74.4436Z" fill="#ECFFFE"/>
</svg>
