<svg width="76" height="88" viewBox="0 0 76 88" fill="none" xmlns="http://www.w3.org/2000/svg">
<path opacity="0.3" d="M49 18.8522L48.9861 57.4289C48.9861 58.757 47.8984 59.845 46.5738 59.845H2.41228C1.08762 59.845 0 58.757 0 57.4289V2.91616C0 1.58798 1.08762 0.5 2.41228 0.5H31.8976C33.2223 0.5 34.3099 1.58798 34.3099 2.91616V10.0731C34.3099 12.7577 36.3596 14.8913 39.0647 14.8913H46.5877C47.9124 14.8913 49 15.9793 49 17.3074V18.8522Z" fill="white"/>
<path opacity="0.69" d="M75 38.4236L74.9815 83.2948C74.9815 85.0567 73.5387 86.4999 71.7815 86.4999H13.2C11.4428 86.4999 10 85.0567 10 83.2948V17.284C10 15.5221 11.4428 14.0789 13.2 14.0789H52.3131C54.0703 14.0789 55.5131 15.5221 55.5131 17.284V26.7779C55.5131 30.3391 58.2322 33.1693 61.8206 33.1693H71.8C73.5572 33.1693 75 34.6126 75 36.3745V38.4236Z" stroke="white" stroke-width="2"/>
<path fill-rule="evenodd" clip-rule="evenodd" d="M55.5576 74.4123C52.0131 74.4123 48.6818 73.0331 46.1773 70.5275C43.6718 68.022 42.2925 64.6917 42.2925 61.1482C42.2925 57.6037 43.6718 54.2735 46.1773 51.7689C48.6818 49.2624 52.0131 47.8831 55.5576 47.8831C59.1001 47.8831 62.4314 49.2624 64.9359 51.7689C67.4415 54.2735 68.8227 57.6037 68.8227 61.1482C68.8227 64.6917 67.4415 68.022 64.9359 70.5275C62.4314 73.0331 59.1001 74.4123 55.5576 74.4123ZM55.5576 53.4213C53.4929 53.4213 51.552 54.2247 50.0936 55.6842C48.6331 57.1436 47.8287 59.0845 47.8308 61.1482C47.8287 63.212 48.6331 65.1528 50.0936 66.6113C51.552 68.0707 53.4929 68.8741 55.5576 68.8741C57.6204 68.8741 59.5612 68.0707 61.0197 66.6113C62.4801 65.1528 63.2845 63.212 63.2845 61.1482C63.2845 59.0845 62.4801 57.1436 61.0197 55.6842C59.5612 54.2247 57.6204 53.4213 55.5576 53.4213Z" fill="#ECFFFE"/>
<path fill-rule="evenodd" clip-rule="evenodd" d="M48.1446 69.1676C47.9465 69.1676 47.7465 69.1351 47.5494 69.0671L8.28333 55.6781C7.31646 55.349 6.80153 54.3009 7.1306 53.335C7.46067 52.3702 8.51388 51.8532 9.47263 52.1843L48.7397 65.5733C49.7056 65.9024 50.2215 66.9505 49.8915 67.9163C49.6304 68.6831 48.9124 69.1676 48.1446 69.1676Z" fill="#ECFFFE"/>
<path fill-rule="evenodd" clip-rule="evenodd" d="M62.1572 55.153C61.3893 55.153 60.6723 54.6706 60.4103 53.9017L47.0213 14.6367C46.6912 13.6708 47.2072 12.6227 48.173 12.2936C49.1267 11.9615 50.185 12.4774 50.5151 13.4453L63.904 52.7104C64.2341 53.6763 63.7192 54.7244 62.7523 55.0535C62.5563 55.1205 62.3562 55.153 62.1572 55.153Z" fill="#ECFFFE"/>
<path fill-rule="evenodd" clip-rule="evenodd" d="M52.4082 53.0943C51.75 53.0943 51.1133 52.7429 50.7801 52.1234L36.7675 26.096C36.2841 25.1981 36.6213 24.0789 37.5191 23.5955C38.4149 23.11 39.5361 23.4472 40.0196 24.345L54.0322 50.3735C54.5156 51.2713 54.1784 52.3905 53.2806 52.8739C53.0033 53.0242 52.7037 53.0943 52.4082 53.0943Z" fill="#ECFFFE"/>
<path fill-rule="evenodd" clip-rule="evenodd" d="M54.5806 62.6036C54.1083 62.6036 53.6361 62.4228 53.2755 62.0623L11.382 20.1698C10.6609 19.4487 10.6609 18.2797 11.382 17.5586C12.1031 16.8375 13.2711 16.8375 13.9922 17.5586L55.8857 59.4521C56.6068 60.1732 56.6068 61.3412 55.8857 62.0623C55.5251 62.4228 55.0529 62.6036 54.5806 62.6036Z" fill="#ECFFFE"/>
</svg>
