<svg width="116" height="117" viewBox="0 0 116 117" fill="none" xmlns="http://www.w3.org/2000/svg">
<g clip-path="url(#clip0)">
<path opacity="0.1" d="M92.6942 7.80762V86.7904C92.6942 90.7252 89.5552 93.9446 85.7188 93.9446H6.97544C3.13895 93.9446 0 90.7252 0 86.7904V7.80762C0 3.87279 3.13895 0.653381 6.97544 0.653381H85.7188C89.5552 0.653381 92.6942 3.87279 92.6942 7.80762Z" fill="#708CF0"/>
<path fill-rule="evenodd" clip-rule="evenodd" d="M14.0049 25.7469C14.0049 19.165 19.2132 13.8232 25.6306 13.8232H104.374C110.791 13.8232 116 19.165 116 25.7469V104.73C116 111.312 110.791 116.653 104.374 116.653H25.6306C19.2132 116.653 14.0049 111.312 14.0049 104.73V25.7469ZM111.349 104.73V25.7473C111.349 21.8125 108.211 18.5931 104.374 18.5931H25.6307C21.7942 18.5931 18.6553 21.8125 18.6553 25.7473V104.73C18.6553 108.665 21.7942 111.884 25.6307 111.884H104.374C108.211 111.884 111.349 108.665 111.349 104.73Z" fill="#708CF0"/>
<path fill-rule="evenodd" clip-rule="evenodd" d="M52.9002 76.3288C56.755 73.4795 62.1039 73.9532 65.4084 77.4366L89.2735 53.3418C89.4975 53.107 89.808 52.9764 90.1309 52.9811H90.8216C91.4793 52.9811 92.0125 53.5194 92.0125 54.1835V57.7905C92.0108 59.7031 91.2569 61.5368 89.9165 62.8884L78.0078 74.9117L80.5087 77.4366C83.8132 73.9532 89.1621 73.4795 93.0169 76.3288C96.8716 79.1782 98.04 84.4695 95.7491 88.7022C93.4582 92.9349 88.4165 94.8 83.9594 93.0636C79.5022 91.3272 77.0081 86.5264 78.1269 81.8371H75.7452C75.1203 81.8345 74.5216 81.584 74.078 81.1398L72.9585 80.0096L71.8391 81.1398C71.3955 81.584 70.7967 81.8345 70.1719 81.8371H67.7902C68.909 86.5264 66.4149 91.3272 61.9577 93.0636C57.5006 94.8 52.4589 92.9349 50.168 88.7022C47.8771 84.4695 49.0455 79.1782 52.9002 76.3288ZM91.1807 86.927C92.4498 85.023 92.2096 82.479 90.6071 80.8514C89.7179 79.9482 88.5101 79.438 87.2488 79.4326C84.9758 79.423 83.0126 81.0362 82.5605 83.2852C82.1083 85.5344 83.2931 87.7926 85.39 88.6785C87.4869 89.5644 89.9116 88.831 91.1807 86.927ZM55.3098 87.6323C53.9505 86.4569 53.3583 84.6114 53.7769 82.8546C54.1955 81.0977 55.5541 79.726 57.2942 79.3034C59.0343 78.8808 60.8622 79.4786 62.0264 80.8511C63.3857 82.0265 63.9779 83.872 63.5593 85.6288C63.1407 87.3857 61.7821 88.7574 60.042 89.18C58.3019 89.6026 56.474 89.0047 55.3098 87.6323ZM55.7861 52.9811C56.109 52.9764 56.4194 53.107 56.6435 53.3418L70.0051 66.8561L64.9558 71.954L56.0004 62.8884C54.6601 61.5368 53.9062 59.7031 53.9045 57.7905V54.1835C53.9045 53.5194 54.4377 52.9811 55.0954 52.9811H55.7861Z" fill="#708CF0"/>
</g>
<defs>
<clipPath id="clip0">
<rect width="116" height="116" fill="white" transform="translate(0 0.653381)"/>
</clipPath>
</defs>
</svg>
