<svg width="116" height="117" viewBox="0 0 116 117" fill="none" xmlns="http://www.w3.org/2000/svg">
<g clip-path="url(#clip0)">
<path opacity="0.1" d="M92.6942 7.80762V86.7904C92.6942 90.7252 89.5552 93.9446 85.7188 93.9446H6.97544C3.13895 93.9446 0 90.7252 0 86.7904V7.80762C0 3.87279 3.13895 0.653381 6.97544 0.653381H85.7188C89.5552 0.653381 92.6942 3.87279 92.6942 7.80762Z" fill="#6DD6B0"/>
<path fill-rule="evenodd" clip-rule="evenodd" d="M14.0049 25.7469C14.0049 19.165 19.2132 13.8232 25.6306 13.8232H104.374C110.791 13.8232 116 19.165 116 25.7469V104.73C116 111.312 110.791 116.653 104.374 116.653H25.6306C19.2132 116.653 14.0049 111.312 14.0049 104.73V25.7469ZM111.349 104.73V25.7473C111.349 21.8125 108.211 18.5931 104.374 18.5931H25.6307C21.7942 18.5931 18.6553 21.8125 18.6553 25.7473V104.73C18.6553 108.665 21.7942 111.884 25.6307 111.884H104.374C108.211 111.884 111.349 108.665 111.349 104.73Z" fill="#6DD6B0"/>
<path fill-rule="evenodd" clip-rule="evenodd" d="M86.4023 78.0289H90.3398C95.414 78.0289 99.5273 82.1423 99.5273 87.2164C99.5273 92.2905 95.414 96.4039 90.3398 96.4039C85.2657 96.4039 81.1523 92.2905 81.1523 87.2164V83.2789H70.6523V87.2164C70.6523 92.2905 66.539 96.4039 61.4648 96.4039C56.3907 96.4039 52.2773 92.2905 52.2773 87.2164C52.2773 82.1423 56.3907 78.0289 61.4648 78.0289H65.4023V67.5289H61.4648C56.3907 67.5289 52.2773 63.4155 52.2773 58.3414C52.2773 53.2673 56.3907 49.1539 61.4648 49.1539C66.539 49.1539 70.6523 53.2673 70.6523 58.3414V62.2789H81.1523V58.3414C81.1523 53.2673 85.2657 49.1539 90.3398 49.1539C95.414 49.1539 99.5273 53.2673 99.5273 58.3414C99.5273 63.4155 95.414 67.5289 90.3398 67.5289H86.4023V78.0289ZM90.3398 54.4039C88.1652 54.4039 86.4023 56.1667 86.4023 58.3414V62.2789H90.3398C92.5145 62.2789 94.2773 60.516 94.2773 58.3414C94.2773 56.1667 92.5145 54.4039 90.3398 54.4039ZM61.4648 62.2789C59.2902 62.2789 57.5273 60.516 57.5273 58.3414C57.5273 56.1667 59.2902 54.4039 61.4648 54.4039C63.6395 54.4039 65.4023 56.1667 65.4023 58.3414V62.2789H61.4648ZM61.4648 91.1539C63.6395 91.1539 65.4023 89.391 65.4023 87.2164V83.2789H61.4648C59.2902 83.2789 57.5273 85.0417 57.5273 87.2164C57.5273 89.391 59.2902 91.1539 61.4648 91.1539ZM70.6523 78.0289V67.5289H81.1523V78.0289H70.6523ZM86.4023 87.2164C86.4023 89.391 88.1652 91.1539 90.3398 91.1539C92.5145 91.1539 94.2773 89.391 94.2773 87.2164C94.2773 85.0417 92.5145 83.2789 90.3398 83.2789H86.4023V87.2164Z" fill="#6DD6B0"/>
</g>
<defs>
<clipPath id="clip0">
<rect width="116" height="116" fill="white" transform="translate(0 0.653381)"/>
</clipPath>
</defs>
</svg>
