<svg width="116" height="116" viewBox="0 0 116 116" fill="none" xmlns="http://www.w3.org/2000/svg">
<g clip-path="url(#clip0)">
<path opacity="0.1" d="M92.6942 7.15424V86.137C92.6942 90.0718 89.5552 93.2912 85.7188 93.2912H6.97544C3.13895 93.2912 0 90.0718 0 86.137V7.15424C0 3.21941 3.13895 0 6.97544 0H85.7188C89.5552 0 92.6942 3.21941 92.6942 7.15424Z" fill="#FB6363"/>
<path fill-rule="evenodd" clip-rule="evenodd" d="M14.0049 25.0935C14.0049 18.5116 19.2132 13.1698 25.6306 13.1698H104.374C110.791 13.1698 116 18.5116 116 25.0935V104.076C116 110.658 110.791 116 104.374 116H25.6306C19.2132 116 14.0049 110.658 14.0049 104.076V25.0935ZM111.349 104.077V25.0939C111.349 21.1591 108.211 17.9397 104.374 17.9397H25.6307C21.7942 17.9397 18.6553 21.1591 18.6553 25.0939V104.077C18.6553 108.012 21.7942 111.231 25.6307 111.231H104.374C108.211 111.231 111.349 108.012 111.349 104.077Z" fill="#FB6363"/>
<path fill-rule="evenodd" clip-rule="evenodd" d="M96.9996 66.2995C96.9996 63.719 94.9103 61.6271 92.333 61.6271H84.0496C84.8803 60.2098 85.323 58.5981 85.333 56.9548H92.333C92.333 54.3743 90.2436 52.2825 87.6663 52.2825H84.0496C82.374 49.4232 79.3108 47.6667 75.9996 47.6667C72.6885 47.6667 69.6252 49.4232 67.9496 52.2825H61.9996C58.1336 52.2825 54.9996 55.4203 54.9996 59.291V89.6611C54.9996 92.2415 57.089 94.3334 59.6663 94.3334H92.333C94.9103 94.3334 96.9996 92.2415 96.9996 89.6611V66.2995ZM75.9996 52.2826C78.577 52.2826 80.6663 54.3745 80.6663 56.9549C80.6663 59.5354 78.577 61.6273 75.9996 61.6273C73.4223 61.6273 71.333 59.5354 71.333 56.9549C71.333 54.3745 73.4223 52.2826 75.9996 52.2826ZM61.9996 56.955C60.711 56.955 59.6663 58.0009 59.6663 59.2911C59.6663 60.5813 60.711 61.6273 61.9996 61.6273H67.9496C67.119 60.2099 66.6763 58.5983 66.6663 56.955H61.9996ZM92.333 84.9887H75.9996C74.711 84.9887 73.6663 83.9427 73.6663 82.6525V73.3078C73.6663 72.0176 74.711 70.9717 75.9996 70.9717H92.333V84.9887ZM79.4996 80.3163C78.8553 80.3163 78.333 79.7934 78.333 79.1483V76.8121C78.333 76.167 78.8553 75.644 79.4996 75.644H81.833C82.4773 75.644 82.9996 76.167 82.9996 76.8121V79.1483C82.9996 79.7934 82.4773 80.3163 81.833 80.3163H79.4996Z" fill="#FB6363"/>
</g>
<defs>
<clipPath id="clip0">
<rect width="116" height="116" fill="white"/>
</clipPath>
</defs>
</svg>
