<svg width="116" height="116" viewBox="0 0 116 116" fill="none" xmlns="http://www.w3.org/2000/svg">
<g clip-path="url(#clip0)">
<path opacity="0.1" d="M92.6942 7.15424V86.137C92.6942 90.0718 89.5552 93.2912 85.7188 93.2912H6.97544C3.13895 93.2912 0 90.0718 0 86.137V7.15424C0 3.21941 3.13895 0 6.97544 0H85.7188C89.5552 0 92.6942 3.21941 92.6942 7.15424Z" fill="#EFBD0D"/>
<path fill-rule="evenodd" clip-rule="evenodd" d="M14.0049 25.0935C14.0049 18.5116 19.2132 13.1698 25.6306 13.1698H104.374C110.791 13.1698 116 18.5116 116 25.0935V104.076C116 110.658 110.791 116 104.374 116H25.6306C19.2132 116 14.0049 110.658 14.0049 104.076V25.0935ZM111.349 104.077V25.0939C111.349 21.1591 108.211 17.9397 104.374 17.9397H25.6307C21.7942 17.9397 18.6553 21.1591 18.6553 25.0939V104.077C18.6553 108.012 21.7942 111.231 25.6307 111.231H104.374C108.211 111.231 111.349 108.012 111.349 104.077Z" fill="#FFD84E"/>
<path fill-rule="evenodd" clip-rule="evenodd" d="M82.849 87.3307C80.1848 86.9722 77.7061 85.7368 75.7853 83.8102L56.9979 64.5478C55.6194 63.1326 53.7491 62.3366 51.7983 62.3349H49.7381C49.0608 62.3349 48.5117 61.772 48.5117 61.0775V58.5629C48.5117 57.8685 49.0608 57.3055 49.7381 57.3055H51.7983C55.0529 57.2996 58.1764 58.6204 60.4807 60.977L68.133 68.8479L75.7853 60.977C77.7061 59.0504 80.1848 57.815 82.849 57.4564V52.2762C82.8461 51.7686 83.1412 51.309 83.597 51.111C84.0529 50.9131 84.5802 51.0156 84.9338 51.3709L92.2918 58.9149C92.7621 59.4124 92.7621 60.2029 92.2918 60.7003L84.9338 68.2444C84.5834 68.5966 84.062 68.7007 83.6083 68.5092C83.1546 68.3176 82.8559 67.8672 82.849 67.3642V62.5361C81.4942 62.8468 80.2527 63.5443 79.2681 64.5478L71.5913 72.3936L79.2681 80.2393C80.2527 81.2428 81.4942 81.9403 82.849 82.2511V77.4229C82.8461 76.9153 83.1412 76.4557 83.597 76.2577C84.0529 76.0598 84.5802 76.1623 84.9338 76.5176L92.2918 84.0616C92.7621 84.5591 92.7621 85.3496 92.2918 85.847L84.9338 93.3911C84.5834 93.7433 84.062 93.8474 83.6083 93.6559C83.1546 93.4643 82.8559 93.0139 82.849 92.5109V87.3307ZM60.4807 83.81L65.1162 79.0321L61.658 75.4864L56.9979 80.2392C55.6194 81.6543 53.7491 82.4503 51.7983 82.4521H49.7381C49.0608 82.4521 48.5117 83.015 48.5117 83.7094V86.2241C48.5117 86.9185 49.0608 87.4814 49.7381 87.4814H51.7983C55.0529 87.4874 58.1764 86.1666 60.4807 83.81Z" fill="#FFD84E"/>
</g>
<defs>
<clipPath id="clip0">
<rect width="116" height="116" fill="white"/>
</clipPath>
</defs>
</svg>
