<svg width="116" height="116" viewBox="0 0 116 116" fill="none" xmlns="http://www.w3.org/2000/svg">
<g clip-path="url(#clip0)">
<path opacity="0.1" d="M92.6942 7.15424V86.137C92.6942 90.0718 89.5552 93.2912 85.7188 93.2912H6.97544C3.13895 93.2912 0 90.0718 0 86.137V7.15424C0 3.21941 3.13895 0 6.97544 0H85.7188C89.5552 0 92.6942 3.21941 92.6942 7.15424Z" fill="#A66DF5"/>
<path fill-rule="evenodd" clip-rule="evenodd" d="M14.0049 25.0935C14.0049 18.5116 19.2132 13.1698 25.6306 13.1698H104.374C110.791 13.1698 116 18.5116 116 25.0935V104.076C116 110.658 110.791 116 104.374 116H25.6306C19.2132 116 14.0049 110.658 14.0049 104.076V25.0935ZM111.349 104.077V25.0939C111.349 21.1591 108.211 17.9397 104.374 17.9397H25.6307C21.7942 17.9397 18.6553 21.1591 18.6553 25.0939V104.077C18.6553 108.012 21.7942 111.231 25.6307 111.231H104.374C108.211 111.231 111.349 108.012 111.349 104.077Z" fill="#A66DF5"/>
<path fill-rule="evenodd" clip-rule="evenodd" d="M69.3944 58.5728C69.3944 54.501 66.123 51.1948 62.086 51.1948C58.0664 51.1948 54.795 54.501 54.7776 58.5728C54.7776 62.6447 58.049 65.9509 62.086 65.9509C66.123 65.9509 69.3944 62.6447 69.3944 58.5728ZM41.7437 89.6684H97.7574C98.7319 89.6684 99.5324 88.8679 99.5324 87.8935V73.9379C99.5324 73.4506 99.3583 72.9634 99.0625 72.5806L87.5257 57.6158C86.76 56.5891 85.2635 56.4499 84.3065 57.3025L63.9821 75.2604C63.2165 75.9216 62.1376 76.0086 61.285 75.4518L50.7052 68.5436C49.6959 67.8997 48.3735 68.1433 47.6774 69.1178L39.9166 80.0804C39.6556 80.4632 39.5164 80.8983 39.5164 81.3681V87.441C39.5164 88.6765 40.5256 89.6684 41.7437 89.6684Z" fill="#A66DF5"/>
</g>
<defs>
<clipPath id="clip0">
<rect width="116" height="116" fill="white"/>
</clipPath>
</defs>
</svg>
