<svg width="116" height="117" viewBox="0 0 116 117" fill="none" xmlns="http://www.w3.org/2000/svg">
<g clip-path="url(#clip0)">
<path opacity="0.1" d="M92.6942 7.80762V86.7904C92.6942 90.7252 89.5552 93.9446 85.7188 93.9446H6.97544C3.13895 93.9446 0 90.7252 0 86.7904V7.80762C0 3.87279 3.13895 0.653381 6.97544 0.653381H85.7188C89.5552 0.653381 92.6942 3.87279 92.6942 7.80762Z" fill="#A66DF5"/>
<path fill-rule="evenodd" clip-rule="evenodd" d="M14.0049 25.7469C14.0049 19.165 19.2132 13.8232 25.6306 13.8232H104.374C110.791 13.8232 116 19.165 116 25.7469V104.73C116 111.312 110.791 116.653 104.374 116.653H25.6306C19.2132 116.653 14.0049 111.312 14.0049 104.73V25.7469ZM111.349 104.73V25.7473C111.349 21.8125 108.211 18.5931 104.374 18.5931H25.6307C21.7942 18.5931 18.6553 21.8125 18.6553 25.7473V104.73C18.6553 108.665 21.7942 111.884 25.6307 111.884H104.374C108.211 111.884 111.349 108.665 111.349 104.73Z" fill="#A02E8E"/>
<path fill-rule="evenodd" clip-rule="evenodd" d="M66.715 40.6534H87.2864C91.5469 40.6534 95.0007 44.1072 95.0007 48.3677V89.5105C95.0007 93.771 91.5469 97.2248 87.2864 97.2248H66.715C62.4545 97.2248 59.0007 93.771 59.0007 89.5105V48.3677C59.0007 44.1072 62.4545 40.6534 66.715 40.6534ZM66.715 92.082H87.2864C88.7066 92.082 89.8579 90.9307 89.8579 89.5105V48.3677C89.8579 46.9475 88.7066 45.7962 87.2864 45.7962C85.8663 45.7962 84.715 46.9475 84.715 48.3677C84.715 49.7878 83.5637 50.9391 82.1436 50.9391H71.8579C70.4377 50.9391 69.2864 49.7878 69.2864 48.3677C69.2864 46.9475 68.1352 45.7962 66.715 45.7962C65.2949 45.7962 64.1436 46.9475 64.1436 48.3677V89.5105C64.1436 90.9307 65.2949 92.082 66.715 92.082Z" fill="#A02E8E"/>
</g>
<defs>
<clipPath id="clip0">
<rect width="116" height="116" fill="white" transform="translate(0 0.653381)"/>
</clipPath>
</defs>
</svg>
