<svg width="129" height="40" viewBox="0 0 129 40" fill="none" xmlns="http://www.w3.org/2000/svg">
<path fill-rule="evenodd" clip-rule="evenodd" d="M10.9397 0.171313C11.896 0.605667 12.3178 1.72997 11.8817 2.68251L4.86263 18.0142H15.8595C16.9106 18.0142 17.7627 18.8629 17.7627 19.9098V37.2803C17.7627 38.3271 16.9106 39.1758 15.8595 39.1758C14.8085 39.1758 13.9564 38.3271 13.9564 37.2803V21.8054H1.90314C1.25568 21.8054 0.652625 21.4776 0.302415 20.9351C-0.0477894 20.3927 -0.0970959 19.7101 0.171536 19.1234L8.41848 1.10957C8.85457 0.157033 9.98336 -0.263041 10.9397 0.171313Z" fill="white"/>
<path d="M72.3399 17.0606C70.3402 17.0606 68.6738 16.4491 67.3408 15.2258C66.0078 14.0027 65.3412 12.5118 65.3412 10.7535C65.3412 8.99516 66.016 7.50439 67.3658 6.28118C68.7156 5.04269 70.3902 4.42344 72.3899 4.42344C74.3895 4.42344 76.0559 5.03504 77.389 6.25825C78.7387 7.48145 79.4135 8.97987 79.4135 10.7535C79.4135 12.4966 78.7387 13.9874 77.389 15.2258C76.0391 16.4491 74.3561 17.0606 72.3399 17.0606ZM72.3899 14.6525C73.5897 14.6525 74.5561 14.2779 75.2893 13.5286C76.0225 12.7795 76.3891 11.8544 76.3891 10.7535C76.3891 9.66792 76.0059 8.75052 75.2393 8.00131C74.4728 7.23681 73.5063 6.85456 72.3399 6.85456C71.1568 6.85456 70.1986 7.22916 69.4654 7.97837C68.7322 8.72758 68.3657 9.65263 68.3657 10.7535C68.3657 11.8238 68.7488 12.7412 69.5154 13.5058C70.2819 14.2702 71.24 14.6525 72.3899 14.6525Z" fill="white"/>
<path d="M86.7369 16.8771C86.2349 16.8771 85.78 16.5823 85.5768 16.1251L81.2763 6.45108C80.905 5.61557 81.5192 4.67573 82.4365 4.67573H82.8753C83.3953 4.67573 83.8626 4.99163 84.0545 5.47288L86.1109 10.6286C86.5343 11.6901 88.042 11.6919 88.468 10.6315L90.5412 5.47005C90.7338 4.99031 91.2003 4.67573 91.7191 4.67573H92.0888C93.0054 4.67573 93.6195 5.61383 93.2499 6.44911L88.9693 16.1231C88.7664 16.5814 88.3111 16.8771 87.8083 16.8771H86.7369Z" fill="white"/>
<path d="M101.894 17.0606C99.9615 17.0606 98.3451 16.472 97.0454 15.2947C95.7623 14.1173 95.1207 12.596 95.1207 10.7306C95.1207 8.97223 95.7289 7.48145 96.9454 6.25825C98.1618 5.03504 99.7032 4.42344 101.57 4.42344C103.569 4.42344 105.119 5.05033 106.219 6.30412C107.335 7.54261 107.893 9.0869 107.893 10.937C107.893 11.3899 107.513 11.7168 107.058 11.7168H99.6511C98.8644 11.7168 98.2449 12.4499 98.6545 13.1189C98.8574 13.4503 99.1124 13.7397 99.4199 13.9874C100.103 14.5226 100.945 14.7901 101.944 14.7901C102.925 14.7901 103.844 14.5159 104.702 13.9673C105.201 13.6483 105.857 13.6204 106.316 13.9941C106.848 14.4275 106.915 15.2276 106.371 15.6468C105.149 16.5894 103.656 17.0606 101.894 17.0606ZM98.5505 8.5011C98.1917 9.18049 98.8083 9.88198 99.579 9.88198H103.482C104.236 9.88198 104.85 9.2101 104.527 8.53137C104.36 8.18057 104.141 7.86627 103.869 7.58848C103.286 6.99217 102.511 6.69402 101.545 6.69402C100.628 6.69402 99.8615 6.99217 99.2449 7.58848C98.9629 7.85429 98.7314 8.15849 98.5505 8.5011Z" fill="white"/>
<path d="M112.199 16.7854C111.499 16.7854 110.931 16.2196 110.931 15.5217V5.93945C110.931 5.24152 111.499 4.67573 112.199 4.67573H113.471C113.738 4.67573 113.955 4.89176 113.955 5.15824C113.955 5.67809 114.848 5.92292 115.232 5.57094C115.888 4.96954 116.683 4.60811 117.618 4.48664C118.179 4.41363 118.629 4.8915 118.629 5.45567V7.2078C118.629 7.30404 118.551 7.38206 118.454 7.38206C117.088 7.38206 115.996 7.79489 115.18 8.62056C114.363 9.43093 113.955 10.6159 113.955 12.1754V15.5217C113.955 16.2196 113.387 16.7854 112.686 16.7854H112.199Z" fill="white"/>
<path fill-rule="evenodd" clip-rule="evenodd" d="M40.9004 5.49246C34.1579 2.21813 26.2303 4.34305 22.1192 10.1179C21.5112 10.9719 20.3233 11.1733 19.466 10.5677C18.6085 9.96219 18.4063 8.77899 19.0143 7.92499C24.2099 0.626707 34.1611 -1.99799 42.5685 2.08476C51.9001 6.61638 55.8723 17.7405 51.3601 26.9584C46.8479 36.1764 35.6026 39.9106 26.2709 35.3789C25.3261 34.9201 24.9337 33.7853 25.3943 32.8443C25.855 31.9033 26.9942 31.5124 27.939 31.9712C35.4297 35.6089 44.3714 32.5849 47.9389 25.297C51.5063 18.0092 48.3911 9.13011 40.9004 5.49246Z" fill="white"/>
<path fill-rule="evenodd" clip-rule="evenodd" d="M31.719 35.3842C31.719 34.3373 32.5711 33.4886 33.6222 33.4886H51.3848C52.4359 33.4886 53.288 34.3373 53.288 35.3842C53.288 36.4312 52.4359 37.2798 51.3848 37.2798H33.6222C32.5711 37.2798 31.719 36.4312 31.719 35.3842Z" fill="white"/>
<path d="M81.8351 36.9937C81.1344 36.9937 80.5663 36.4279 80.5663 35.7299V20.8514C80.5663 20.1534 81.1344 19.5877 81.8351 19.5877H82.2854C82.9861 19.5877 83.5541 20.1534 83.5541 20.8514V35.7299C83.5541 36.4279 82.9861 36.9937 82.2854 36.9937H81.8351Z" fill="white"/>
<path d="M93.6566 37.2798C91.6812 37.2798 90.0351 36.644 88.7181 35.3723C87.4012 34.1006 86.7427 32.5508 86.7427 30.7228C86.7427 28.8947 87.4094 27.3449 88.7429 26.0732C90.0762 24.7856 91.7305 24.1419 93.706 24.1419C95.6813 24.1419 97.3276 24.7776 98.6445 26.0493C99.9779 27.321 100.645 28.8788 100.645 30.7228C100.645 32.5349 99.9779 34.0847 98.6445 35.3723C97.3111 36.644 95.6485 37.2798 93.6566 37.2798ZM93.706 34.7762C94.8913 34.7762 95.846 34.3867 96.5704 33.6079C97.2946 32.8289 97.6568 31.8672 97.6568 30.7228C97.6568 29.5942 97.2782 28.6405 96.5209 27.8615C95.7637 27.0667 94.8089 26.6693 93.6566 26.6693C92.4879 26.6693 91.5412 27.0588 90.817 27.8376C90.0927 28.6166 89.7305 29.5783 89.7305 30.7228C89.7305 31.8355 90.1091 32.7893 90.8664 33.584C91.6236 34.3788 92.5701 34.7762 93.706 34.7762Z" fill="white"/>
<path d="M107.906 37.0891C107.396 37.0891 106.935 36.7841 106.737 36.3154L102.446 26.158C102.094 25.3251 102.708 24.4042 103.615 24.4042H104.038C104.566 24.4042 105.039 24.7296 105.225 25.2216L107.239 30.5347C107.651 31.6232 109.197 31.625 109.612 30.5374L111.642 25.2188C111.829 24.7284 112.301 24.4042 112.828 24.4042H113.182C114.088 24.4042 114.702 25.3233 114.352 26.156L110.081 36.3135C109.883 36.7832 109.422 37.0891 108.911 37.0891H107.906Z" fill="white"/>
<path d="M122.853 37.2798C120.944 37.2798 119.347 36.6679 118.063 35.4438C116.795 34.2198 116.161 32.6382 116.161 30.6989C116.161 28.8708 116.762 27.321 117.964 26.0493C119.166 24.7776 120.688 24.1419 122.532 24.1419C124.507 24.1419 126.038 24.7936 127.125 26.0971C128.227 27.3846 128.779 28.9901 128.779 30.9135C128.779 31.3832 128.385 31.7242 127.914 31.7242H120.643C119.86 31.7242 119.241 32.4465 119.621 33.1276C119.827 33.4947 120.089 33.8138 120.408 34.0847C121.083 34.6411 121.915 34.9193 122.902 34.9193C123.852 34.9193 124.744 34.6452 125.577 34.0971C126.097 33.7546 126.792 33.7244 127.266 34.1296C127.774 34.5662 127.84 35.3427 127.324 35.7704C126.107 36.7767 124.617 37.2798 122.853 37.2798ZM119.523 28.4355C119.191 29.1243 119.806 29.8167 120.573 29.8167H124.412C125.164 29.8167 125.775 29.1523 125.477 28.4653C125.309 28.0792 125.085 27.735 124.804 27.4323C124.228 26.8124 123.462 26.5024 122.507 26.5024C121.602 26.5024 120.845 26.8124 120.236 27.4323C119.943 27.7226 119.705 28.057 119.523 28.4355Z" fill="white"/>
</svg>
